<?xml version="1.0" encoding="utf-8"?>
<!-- Generator: Adobe Illustrator 16.0.0, SVG Export Plug-In . SVG Version: 6.00 Build 0)  -->
<!DOCTYPE svg PUBLIC "-//W3C//DTD SVG 1.1//EN" "http://www.w3.org/Graphics/SVG/1.1/DTD/svg11.dtd">
<svg version="1.1" id="Layer_1" xmlns="http://www.w3.org/2000/svg" xmlns:xlink="http://www.w3.org/1999/xlink" x="0px" y="0px"
	 width="1483.333px" height="180.667px" viewBox="0 0 1483.333 180.667" enable-background="new 0 0 1483.333 180.667"
	 xml:space="preserve">
<g>
	<g>
		<path fill="#FF2B06" d="M14.932,157.229l-7.567-10.905h7.211l4.05,6.009l4.006-6.009h6.988l-7.567,10.771l8.501,12.24h-7.21
			l-4.807-7.255l-4.807,7.255H6.653L14.932,157.229z"/>
		<path d="M60.508,155.715H38.03v-4.763h22.478V155.715z M60.508,165.241H38.03v-4.763h22.478V165.241z"/>
		<path d="M77.731,142.763h-6.32v-5.208h6.32V142.763z M71.411,146.324h6.32v23.012h-6.32V146.324z"/>
		<path d="M81.825,146.324h6.009v3.205h0.133c1.603-2.582,4.362-3.828,7.033-3.828c6.721,0,8.412,3.783,8.412,9.48v14.154h-6.32
			v-12.997c0-3.783-1.113-5.652-4.05-5.652c-3.427,0-4.896,1.914-4.896,6.587v12.062h-6.321V146.324z"/>
		<path d="M123.751,166.398h-0.089c-1.469,2.492-4.05,3.561-6.988,3.561c-6.943,0-10.326-5.964-10.326-12.329
			c0-6.187,3.427-11.929,10.193-11.929c2.715,0,5.386,1.157,6.854,3.427h-0.044h0.089v-11.573h6.32v31.78h-6.009V166.398z
			 M118.232,150.463c-4.14,0-5.564,3.561-5.564,7.344c0,3.605,1.647,7.388,5.564,7.388c4.184,0,5.43-3.649,5.43-7.433
			C123.663,154.024,122.327,150.463,118.232,150.463z"/>
		<path d="M138.838,159.365c0.178,4.006,2.136,5.831,5.653,5.831c2.537,0,4.584-1.558,4.985-2.982h5.564
			c-1.781,5.43-5.564,7.745-10.771,7.745c-7.255,0-11.75-4.985-11.75-12.106c0-6.899,4.762-12.151,11.75-12.151
			c7.833,0,11.617,6.587,11.172,13.665H138.838z M149.12,155.359c-0.579-3.205-1.958-4.896-5.03-4.896
			c-4.006,0-5.163,3.116-5.252,4.896H149.12z"/>
		<path d="M158.287,146.324h6.009v2.938h0.089c1.513-2.448,4.006-3.561,6.854-3.561c7.21,0,10.46,5.831,10.46,12.374
			c0,6.143-3.383,11.884-10.104,11.884c-2.76,0-5.386-1.202-6.899-3.472h-0.089v10.949h-6.321V146.324z M175.379,157.896
			c0-3.65-1.469-7.433-5.519-7.433c-4.139,0-5.475,3.694-5.475,7.433s1.424,7.299,5.519,7.299
			C174.044,165.196,175.379,161.635,175.379,157.896z"/>
		<path d="M189.798,159.365c0.178,4.006,2.136,5.831,5.653,5.831c2.537,0,4.584-1.558,4.985-2.982H206
			c-1.781,5.43-5.564,7.745-10.771,7.745c-7.255,0-11.75-4.985-11.75-12.106c0-6.899,4.762-12.151,11.75-12.151
			c7.833,0,11.617,6.587,11.172,13.665H189.798z M200.08,155.359c-0.579-3.205-1.958-4.896-5.03-4.896
			c-4.006,0-5.163,3.116-5.252,4.896H200.08z"/>
		<path d="M209.247,146.324h6.009v3.205h0.133c1.603-2.582,4.362-3.828,7.033-3.828c6.721,0,8.412,3.783,8.412,9.48v14.154h-6.32
			v-12.997c0-3.783-1.113-5.652-4.05-5.652c-3.427,0-4.896,1.914-4.896,6.587v12.062h-6.321V146.324z"/>
		<path d="M251.173,166.398h-0.089c-1.469,2.492-4.05,3.561-6.988,3.561c-6.943,0-10.326-5.964-10.326-12.329
			c0-6.187,3.427-11.929,10.193-11.929c2.715,0,5.386,1.157,6.854,3.427h-0.044h0.089v-11.573h6.32v31.78h-6.009V166.398z
			 M245.654,150.463c-4.14,0-5.564,3.561-5.564,7.344c0,3.605,1.647,7.388,5.564,7.388c4.184,0,5.43-3.649,5.43-7.433
			C251.084,154.024,249.749,150.463,245.654,150.463z"/>
		<path d="M266.26,159.365c0.178,4.006,2.136,5.831,5.653,5.831c2.537,0,4.584-1.558,4.985-2.982h5.564
			c-1.781,5.43-5.564,7.745-10.771,7.745c-7.255,0-11.75-4.985-11.75-12.106c0-6.899,4.762-12.151,11.75-12.151
			c7.833,0,11.617,6.587,11.172,13.665H266.26z M276.542,155.359c-0.579-3.205-1.958-4.896-5.03-4.896
			c-4.006,0-5.163,3.116-5.252,4.896H276.542z"/>
		<path d="M285.709,146.324h6.009v3.205h0.133c1.603-2.582,4.362-3.828,7.033-3.828c6.721,0,8.412,3.783,8.412,9.48v14.154h-6.32
			v-12.997c0-3.783-1.113-5.652-4.05-5.652c-3.427,0-4.896,1.914-4.896,6.587v12.062h-6.321V146.324z"/>
		<path d="M319.223,146.324h4.629v4.229h-4.629v11.395c0,2.137,0.534,2.67,2.67,2.67c0.667,0,1.291-0.044,1.958-0.178v4.94
			c-1.068,0.178-2.448,0.223-3.694,0.223c-3.873,0-7.255-0.89-7.255-5.475v-13.576h-3.828v-4.229h3.828v-6.899h6.321V146.324z"/>
		<path d="M326.165,137.555h6.32v31.78h-6.32V137.555z"/>
		<path d="M347.93,172.229c-1.38,3.695-3.561,5.208-7.923,5.208c-1.291,0-2.582-0.089-3.872-0.223v-5.208
			c1.202,0.089,2.448,0.267,3.694,0.223c2.181-0.223,2.893-2.493,2.181-4.317l-8.101-21.587h6.766l5.208,15.757h0.089l5.03-15.757
			h6.543L347.93,172.229z"/>
		<path d="M381.444,145.701c7.255,0,11.929,4.807,11.929,12.151c0,7.299-4.674,12.106-11.929,12.106
			c-7.211,0-11.884-4.807-11.884-12.106C369.56,150.508,374.233,145.701,381.444,145.701z M381.444,165.196
			c4.317,0,5.608-3.694,5.608-7.344c0-3.694-1.291-7.389-5.608-7.389c-4.273,0-5.564,3.694-5.564,7.389
			C375.88,161.501,377.171,165.196,381.444,165.196z"/>
		<path d="M395.685,146.324h6.009v4.273h0.089c1.157-2.893,4.273-4.896,7.344-4.896c0.445,0,0.979,0.089,1.379,0.223v5.875
			c-0.579-0.133-1.513-0.222-2.27-0.222c-4.629,0-6.231,3.338-6.231,7.389v10.371h-6.321V146.324z"/>
		<path d="M434.229,167.867c0,3.783-1.335,10.192-11.929,10.192c-4.54,0-9.836-2.136-10.148-7.388h6.276
			c0.579,2.359,2.492,3.161,4.718,3.161c3.517,0,5.119-2.404,5.074-5.698v-3.027h-0.089c-1.38,2.404-4.14,3.561-6.899,3.561
			c-6.899,0-9.836-5.252-9.836-11.573c0-5.964,3.427-11.395,9.881-11.395c3.026,0,5.341,1.024,6.854,3.694h0.089v-3.071h6.009
			V167.867z M428.22,157.541c0-3.739-1.291-7.077-5.386-7.077c-3.561,0-5.119,3.116-5.119,6.543c0,3.293,1.246,6.899,5.119,6.899
			C426.44,163.905,428.22,160.834,428.22,157.541z"/>
		<path d="M437.254,153.401c0.356-5.92,5.652-7.7,10.815-7.7c4.585,0,10.104,1.024,10.104,6.543v11.973
			c0,2.092,0.223,4.184,0.801,5.119h-6.41c-0.223-0.712-0.4-1.469-0.445-2.226c-2.003,2.092-4.941,2.849-7.745,2.849
			c-4.362,0-7.833-2.181-7.833-6.899c0-5.208,3.917-6.454,7.833-6.988c3.873-0.579,7.478-0.445,7.478-3.026
			c0-2.715-1.87-3.116-4.095-3.116c-2.403,0-3.961,0.979-4.184,3.472H437.254z M451.853,158.074
			c-1.068,0.935-3.294,0.979-5.252,1.335c-1.958,0.401-3.739,1.068-3.739,3.383c0,2.359,1.825,2.938,3.873,2.938
			c4.94,0,5.119-3.917,5.119-5.296V158.074z"/>
		<path d="M462.177,146.324h6.009v3.205h0.133c1.603-2.582,4.362-3.828,7.033-3.828c6.721,0,8.412,3.783,8.412,9.48v14.154h-6.32
			v-12.997c0-3.783-1.113-5.652-4.05-5.652c-3.427,0-4.896,1.914-4.896,6.587v12.062h-6.321V146.324z"/>
		<path d="M493.288,142.763h-6.32v-5.208h6.32V142.763z M486.967,146.324h6.32v23.012h-6.32V146.324z"/>
		<path d="M495.958,164.573l11.973-13.486h-11.083v-4.763h19.406v4.763l-11.973,13.486H517.1v4.763h-21.142V164.573z"/>
		<path d="M524.799,159.365c0.178,4.006,2.137,5.831,5.652,5.831c2.537,0,4.585-1.558,4.985-2.982H541
			c-1.78,5.43-5.563,7.745-10.771,7.745c-7.255,0-11.75-4.985-11.75-12.106c0-6.899,4.763-12.151,11.75-12.151
			c7.834,0,11.617,6.587,11.173,13.665H524.799z M535.08,155.359c-0.578-3.205-1.958-4.896-5.029-4.896
			c-4.006,0-5.163,3.116-5.252,4.896H535.08z"/>
		<path d="M560.673,166.398h-0.09c-1.469,2.492-4.05,3.561-6.987,3.561c-6.944,0-10.327-5.964-10.327-12.329
			c0-6.187,3.428-11.929,10.193-11.929c2.715,0,5.386,1.157,6.854,3.427h-0.045h0.089v-11.573h6.321v31.78h-6.009V166.398z
			 M555.153,150.463c-4.14,0-5.563,3.561-5.563,7.344c0,3.605,1.646,7.388,5.563,7.388c4.184,0,5.43-3.649,5.43-7.433
			C560.583,154.024,559.248,150.463,555.153,150.463z"/>
		<path d="M589.734,143.431h-9.524v-5.875h26.038v5.875h-9.525v25.905h-6.988V143.431z"/>
		<path d="M609.005,137.555h23.769v5.875h-16.78v6.81h15.4v5.43h-15.4v7.789h17.136v5.875h-24.124V137.555z"/>
		<path d="M636.065,137.555h13.709c8.234,0,14.421,5.164,14.421,15.712c0,9.213-4.718,16.068-14.421,16.068h-13.709V137.555z
			 M643.054,163.46h6.231c4.05,0,7.923-2.492,7.923-9.525c0-6.41-2.226-10.504-9.17-10.504h-4.984V163.46z"/>
		<path d="M684.178,159.365c0.178,4.006,2.137,5.831,5.652,5.831c2.537,0,4.585-1.558,4.985-2.982h5.563
			c-1.78,5.43-5.563,7.745-10.771,7.745c-7.255,0-11.75-4.985-11.75-12.106c0-6.899,4.763-12.151,11.75-12.151
			c7.834,0,11.617,6.587,11.173,13.665H684.178z M694.459,155.359c-0.578-3.205-1.958-4.896-5.029-4.896
			c-4.006,0-5.163,3.116-5.252,4.896H694.459z"/>
		<path d="M715.467,169.335h-7.033l-7.878-23.012h6.632l4.852,15.712h0.089l4.852-15.712h6.276L715.467,169.335z"/>
		<path d="M729.308,159.365c0.178,4.006,2.137,5.831,5.652,5.831c2.537,0,4.585-1.558,4.985-2.982h5.563
			c-1.78,5.43-5.563,7.745-10.771,7.745c-7.255,0-11.75-4.985-11.75-12.106c0-6.899,4.763-12.151,11.75-12.151
			c7.834,0,11.617,6.587,11.172,13.665H729.308z M739.589,155.359c-0.578-3.205-1.958-4.896-5.029-4.896
			c-4.006,0-5.163,3.116-5.252,4.896H739.589z"/>
		<path d="M748.757,146.324h6.009v3.205h0.134c1.603-2.582,4.362-3.828,7.032-3.828c6.722,0,8.413,3.783,8.413,9.48v14.154h-6.32
			v-12.997c0-3.783-1.113-5.652-4.051-5.652c-3.428,0-4.896,1.914-4.896,6.587v12.062h-6.32V146.324z"/>
		<path d="M782.271,146.324h4.629v4.229h-4.629v11.395c0,2.137,0.534,2.67,2.671,2.67c0.668,0,1.291-0.044,1.958-0.178v4.94
			c-1.067,0.178-2.447,0.223-3.694,0.223c-3.872,0-7.255-0.89-7.255-5.475v-13.576h-3.828v-4.229h3.828v-6.899h6.32V146.324z"/>
	</g>
</g>
<g>
	<g>
		<path fill="#FF2B06" d="M33.982,32.414H4.328V5.292h91.879v27.121H66.563v78.695H33.982V32.414z"/>
		<path fill="#FF2B06" d="M101.271,5.292h89.192v27.121h-56.59V45.6h56.59v25.203h-56.59v13.187h56.605v27.12h-89.207V5.292z"/>
		<path fill="#FF2B06" d="M195.95,5.292h53.5c35.266,0,47.729,26.084,47.729,52.753c0,32.466-17.191,53.063-54.096,53.063H195.95
			V5.292z M228.55,83.989h12.75c20.309,0,23.278-16.456,23.278-26.396c0-6.656-2.086-25.179-25.652-25.179H228.55V83.989z"/>
	</g>
	<g>
		<g>
			<path fill="#FF2B06" d="M344.025,70.332L334.08,53.84l-9.698,16.492h-23.887l22.677-33.346L301.336,5.089h23.895l8.849,15.767
				l9.103-15.767h23.888l-21.829,31.896l22.677,33.346H344.025z"/>
		</g>
	</g>
</g>
<g>
	<path d="M461.467,8.766c10.322,5.5,16.637,15.135,18.947,28.908h-14.131c-1.686-7.699-5.175-13.306-10.467-16.821
		c-5.292-3.515-11.964-5.272-20.019-5.272c-9.554,0-17.598,3.658-24.129,10.975c-6.533,7.317-9.799,18.22-9.799,32.709
		c0,12.529,2.694,22.728,8.084,30.593c5.389,7.867,14.176,11.8,26.361,11.8c9.325,0,17.046-2.762,23.163-8.285
		c6.115-5.523,9.245-14.454,9.389-26.792H435.87V54.745h46.267v56.38h-9.182l-3.443-13.557c-4.752,5.308-8.962,8.991-12.63,11.046
		c-6.164,3.539-13.996,5.308-23.498,5.308c-12.278,0-22.84-4.041-31.683-12.123c-9.644-10.137-14.465-24.053-14.465-41.747
		c0-17.646,4.713-31.681,14.139-42.106c8.955-9.946,20.55-14.92,34.784-14.92C445.914,3.027,454.351,4.94,461.467,8.766z"/>
	<path d="M516.782,34.302v51c0,3.922,0.605,7.126,1.817,9.612c2.235,4.59,6.403,6.886,12.505,6.886
		c8.755,0,14.716-4.017,17.884-12.051c1.723-4.304,2.584-10.209,2.584-17.717v-37.73h12.912v76.824h-12.195l0.145-11.333
		c-1.645,2.917-3.688,5.38-6.127,7.388c-4.832,4.017-10.698,6.025-17.595,6.025c-10.746,0-18.066-3.658-21.959-10.975
		c-2.112-3.92-3.167-9.157-3.167-15.709v-52.22H516.782z"/>
	<path d="M585.571,34.302h12.266v10.903c3.635-4.495,7.484-7.723,11.549-9.684c4.064-1.96,8.584-2.941,13.557-2.941
		c10.904,0,18.268,3.802,22.094,11.405c2.104,4.161,3.156,10.114,3.156,17.861v49.279h-13.127V62.707
		c0-4.686-0.693-8.464-2.08-11.333c-2.295-4.781-6.455-7.173-12.48-7.173c-3.061,0-5.572,0.312-7.531,0.933
		c-3.541,1.052-6.648,3.156-9.326,6.312c-2.152,2.535-3.551,5.153-4.195,7.854c-0.646,2.703-0.969,6.563-0.969,11.584v40.241
		h-12.912V34.302z"/>
	<path d="M667.274,34.302h12.266v10.903c3.633-4.495,7.482-7.723,11.549-9.684c4.062-1.96,8.582-2.941,13.557-2.941
		c10.902,0,18.268,3.802,22.094,11.405c2.104,4.161,3.156,10.114,3.156,17.861v49.279h-13.127V62.707
		c0-4.686-0.695-8.464-2.08-11.333c-2.297-4.781-6.457-7.173-12.482-7.173c-3.061,0-5.57,0.312-7.531,0.933
		c-3.539,1.052-6.646,3.156-9.324,6.312c-2.152,2.535-3.551,5.153-4.197,7.854c-0.645,2.703-0.969,6.563-0.969,11.584v40.241h-12.91
		V34.302z"/>
	<path d="M751.056,5.753h14.418v43.541h54.156V5.753h14.418v105.373H819.63V61.846h-54.156v49.279h-14.418V5.753z"/>
	<path d="M855.065,5.753h13.125v14.633h-13.125V5.753z M855.065,34.661h13.125v76.465h-13.125V34.661z"/>
	<path d="M930.411,37.386c2.43,1.674,4.906,4.113,7.432,7.316v-9.684h11.906v69.866c0,9.755-1.43,17.454-4.289,23.098
		c-5.338,10.424-15.418,15.637-30.24,15.637c-8.246,0-15.18-1.854-20.805-5.559c-5.623-3.707-8.77-9.504-9.438-17.395h13.125
		c0.619,3.443,1.855,6.097,3.711,7.962c2.9,2.869,7.467,4.304,13.697,4.304c9.844,0,16.289-3.491,19.332-10.473
		c1.809-4.113,2.641-11.452,2.498-22.021c-2.572,3.922-5.668,6.839-9.289,8.751c-3.619,1.913-8.408,2.869-14.361,2.869
		c-8.289,0-15.541-2.952-21.758-8.859c-6.215-5.905-9.322-15.673-9.322-29.302c0-12.863,3.131-22.905,9.395-30.127
		c6.264-7.22,13.826-10.831,22.686-10.831C920.692,32.939,925.933,34.422,930.411,37.386z M931.991,51.23
		c-3.902-4.591-8.873-6.886-14.916-6.886c-9.041,0-15.225,4.257-18.555,12.768c-1.762,4.543-2.641,10.497-2.641,17.861
		c0,8.656,1.748,15.243,5.244,19.762c3.498,4.519,8.195,6.779,14.096,6.779c9.229,0,15.723-4.184,19.482-12.553
		c2.094-4.734,3.141-10.257,3.141-16.57C937.843,62.875,935.892,55.821,931.991,51.23z"/>
	<path d="M969.403,5.394h12.912v39.309c3.059-3.874,5.811-6.599,8.248-8.177c4.16-2.726,9.35-4.088,15.566-4.088
		c11.143,0,18.697,3.898,22.666,11.692c2.152,4.257,3.229,10.162,3.229,17.717v49.279h-13.27V62.707
		c0-5.642-0.719-9.779-2.152-12.409c-2.344-4.208-6.742-6.312-13.199-6.312c-5.355,0-10.209,1.841-14.561,5.523
		c-4.352,3.683-6.527,10.641-6.527,20.874v40.743h-12.912V5.394z"/>
	<path d="M1062.151,77.125c0.322,5.979,1.682,10.832,4.076,14.562c4.561,6.982,12.6,10.473,24.115,10.473
		c5.158,0,9.857-0.765,14.096-2.295c8.199-2.964,12.301-8.272,12.301-15.924c0-5.738-1.738-9.827-5.213-12.266
		c-3.521-2.391-9.033-4.471-16.539-6.24l-13.828-3.228c-9.033-2.104-15.426-4.423-19.178-6.958
		c-6.486-4.399-9.729-10.975-9.729-19.726c0-9.468,3.188-17.239,9.562-23.312c6.375-6.072,15.402-9.11,27.084-9.11
		c10.75,0,19.881,2.667,27.396,7.998c7.516,5.333,11.273,13.856,11.273,25.572h-13.414c-0.688-5.642-2.154-9.971-4.4-12.983
		c-4.174-5.499-11.256-8.249-21.25-8.249c-8.07,0-13.871,1.77-17.4,5.308c-3.531,3.54-5.295,7.652-5.295,12.338
		c0,5.165,2.084,8.943,6.256,11.333c2.732,1.531,8.918,3.443,18.557,5.738l14.316,3.371c6.904,1.626,12.232,3.85,15.984,6.671
		c6.488,4.926,9.73,12.075,9.73,21.447c0,11.668-4.139,20.013-12.416,25.034c-8.279,5.021-17.896,7.532-28.855,7.532
		c-12.779,0-22.783-3.347-30.012-10.042c-7.232-6.646-10.775-15.661-10.633-27.042H1062.151z"/>
	<path d="M1199.839,38.391c5.426,4.208,8.689,11.453,9.791,21.734h-12.553c-0.766-4.734-2.51-8.667-5.236-11.8
		c-2.727-3.131-7.102-4.698-13.127-4.698c-8.225,0-14.107,4.012-17.646,12.036c-2.295,5.206-3.441,11.63-3.441,19.272
		c0,7.69,1.625,14.161,4.877,19.416s8.367,7.88,15.35,7.88c5.355,0,9.6-1.631,12.732-4.895c3.133-3.263,5.297-7.728,6.492-13.397
		h12.553c-1.436,10.186-5.021,17.635-10.76,22.344c-5.738,4.71-13.08,7.065-22.021,7.065c-10.043,0-18.053-3.669-24.029-11.011
		c-5.979-7.34-8.967-16.509-8.967-27.509c0-13.485,3.275-23.981,9.828-31.49c6.551-7.507,14.895-11.262,25.033-11.262
		C1187.368,32.078,1194.411,34.183,1199.839,38.391z"/>
	<path d="M1222.542,5.394h12.91v39.309c3.061-3.874,5.811-6.599,8.25-8.177c4.16-2.726,9.348-4.088,15.564-4.088
		c11.143,0,18.697,3.898,22.668,11.692c2.152,4.257,3.229,10.162,3.229,17.717v49.279h-13.271V62.707
		c0-5.642-0.717-9.779-2.152-12.409c-2.342-4.208-6.742-6.312-13.197-6.312c-5.357,0-10.211,1.841-14.562,5.523
		c-4.352,3.683-6.527,10.641-6.527,20.874v40.743h-12.91V5.394z"/>
	<path d="M1359.907,41.969c6.789,6.594,10.186,16.292,10.186,29.096c0,12.376-2.992,22.601-8.977,30.675
		c-5.982,8.074-15.266,12.111-27.85,12.111c-10.494,0-18.828-3.571-25-10.713c-6.174-7.143-9.26-16.735-9.26-28.775
		c0-12.9,3.252-23.172,9.758-30.817c6.506-7.644,15.242-11.467,26.213-11.467C1344.806,32.078,1353.116,35.375,1359.907,41.969z
		 M1351.89,93.026c3.145-6.472,4.717-13.673,4.717-21.601c0-7.164-1.135-12.991-3.404-17.481
		c-3.594-7.069-9.789-10.604-18.584-10.604c-7.803,0-13.475,3.009-17.021,9.028c-3.547,6.019-5.32,13.278-5.32,21.779
		c0,8.168,1.773,14.974,5.32,20.419s9.172,8.167,16.881,8.167C1342.94,102.733,1348.745,99.497,1351.89,93.026z"/>
	<path d="M1441.608,41.969c6.789,6.594,10.186,16.292,10.186,29.096c0,12.376-2.992,22.601-8.977,30.675
		c-5.982,8.074-15.266,12.111-27.85,12.111c-10.494,0-18.828-3.571-25-10.713c-6.174-7.143-9.26-16.735-9.26-28.775
		c0-12.9,3.252-23.172,9.758-30.817c6.506-7.644,15.242-11.467,26.213-11.467C1426.507,32.078,1434.817,35.375,1441.608,41.969z
		 M1433.591,93.026c3.145-6.472,4.717-13.673,4.717-21.601c0-7.164-1.135-12.991-3.404-17.481
		c-3.594-7.069-9.789-10.604-18.584-10.604c-7.803,0-13.475,3.009-17.021,9.028c-3.547,6.019-5.32,13.278-5.32,21.779
		c0,8.168,1.773,14.974,5.32,20.419s9.172,8.167,16.881,8.167C1424.642,102.733,1430.446,99.497,1433.591,93.026z"/>
	<path d="M1468.005,5.753h12.91v105.373h-12.91V5.753z"/>
</g>
<g>
</g>
</svg>
